<svg width="85" height="84" viewBox="0 0 85 84" xmlns="http://www.w3.org/2000/svg">
<g clip-path="url(#clip0_54_165)">
<path d="M64.7809 16.8265H22.1407V34.3328H56.1528V50.9641H22.1407V82.7256H0.632812V0.195557H64.7809V16.8265ZM71.5481 61.2175C75.4661 61.2175 78.5091 62.2181 80.6763 64.2186C82.9273 66.2195 84.0527 69.0121 84.0527 72.5967C84.0527 76.098 82.9273 78.849 80.6763 80.8499C78.5091 82.8504 75.4661 83.8507 71.5481 83.8507C67.7134 83.8507 64.6707 82.8504 62.4198 80.8499C60.1692 78.849 59.0437 76.098 59.0437 72.5967C59.0437 69.0121 60.1692 66.2195 62.4198 64.2186C64.6707 62.2181 67.7134 61.2175 71.5481 61.2175Z"/>
</g>
<defs>
<clipPath id="clip0_54_165">
<rect width="85" height="84" />
</clipPath>
</defs>
</svg>
