<svg width="80" height="80" viewBox="0 0 80 80" xmlns="http://www.w3.org/2000/svg">
  <defs>
    <style>
      .color {
        fill: #007190;
      }

      @media (prefers-color-scheme: dark) {
        .color {
          fill: #EAFF69;
        }
      }
    </style>
  </defs>
<path d="M54.88 24.84H27.6V36.04H49.36V46.68H27.6V67H13.84V14.2H54.88V24.84ZM59.2094 53.24C61.716 53.24 63.6627 53.88 65.0494 55.16C66.4894 56.44 67.2094 58.2267 67.2094 60.52C67.2094 62.76 66.4894 64.52 65.0494 65.8C63.6627 67.08 61.716 67.72 59.2094 67.72C56.756 67.72 54.8094 67.08 53.3694 65.8C51.9294 64.52 51.2094 62.76 51.2094 60.52C51.2094 58.2267 51.9294 56.44 53.3694 55.16C54.8094 53.88 56.756 53.24 59.2094 53.24Z" class="color"/>
</svg>
